<svg xmlns="http://www.w3.org/2000/svg" width="80" height="80" viewBox="0 0 80 80">
    <g fill="#0088CE" fill-rule="evenodd">
        <path d="M50.813 52.92c1.18-1.2 4.567-4.953 4.602-4.99a2.17 2.17 0 0 0 .291-.428 2.11 2.11 0 0 0 .138-1.622 2.113 2.113 0 0 0-1.048-1.242 351.002 351.002 0 0 0-6.034-3.045 180.58 180.58 0 0 0-2.036-.985l-.493-.224-.088.257a9.055 9.055 0 0 0-.494 3.102l.002.125.106.074c.343.237.74.504 1.18.804.918.616 2.019 1.35 3.188 2.116h-.002a119.771 119.771 0 0 0-2.75 2.684l-4.19 4.276-8.44-3.028c.16-.092 1.66-.92 3.112-1.72l.351-.195c1.328-.731 2.557-1.41 2.69-1.486.458-.264 1.04-.727 1.209-1.42.056-.23.11-.465.142-.7.054-.431.106-.818.211-1.22.518-1.958 1.528-3.797 2.848-5.182.168-.177.345-.352.528-.518a9.69 9.69 0 0 1 .876-.714c.238-.188.51-.36.773-.525l.52-.304c.267-.144.543-.295.85-.426.237-.122.51-.224.776-.327l.078-.028c.11-.04.222-.084.31-.121l.65-.205 11.59 14.745.11.138 2.515-.888v-.174c0-.166 0-.357-.005-.575a47.482 47.482 0 0 0-.115-2.998 28.763 28.763 0 0 0-.49-3.714 20.086 20.086 0 0 0-.927-3.223l-.252-.616c-.059-.156-.134-.32-.24-.548l-.166-.36c-.069-.15-.14-.304-.222-.467l-1.014-1.855-3.22 1.858.463.805.153.28.298.58c.06.115.119.241.19.397l.095.207c.092.201.179.382.242.546l.216.533c.254.657.635 1.648.959 2.717.293.956.58 2.094.83 3.284l.113.554-9.182-11.677h.002a22.337 22.337 0 0 1 3.91-.327l.565.005c1.195 0 2.18-.96 2.198-2.145a2.177 2.177 0 0 0-.524-1.441c-5.022-5.845-11.87-6.477-14.581-6.477-.481 0-.958.017-1.424.052l-2.5.293-.57.098a27.04 27.04 0 0 0-2.288.554c-.457.122-.788.237-1.06.33L22.324 15.024l-.297 2.071 15.51 12.28.117-.028c.196-.045.41-.094.64-.136a26.41 26.41 0 0 1 1.968-.346l2.244-.177.584-.01c2.218 0 4.3.384 6.187 1.139a15.18 15.18 0 0 1 1.91.915c-.315.055-.628.113-.941.18l-.432.09c-.08.018-.166.043-.254.069l-1.445.427c-.419.143-.816.28-1.2.453-.485.193-.947.426-1.426.673l-.285.154c-.455.264-.925.54-1.367.86-.95.666-1.815 1.42-2.573 2.246a15.877 15.877 0 0 0-1.923 2.59 16.82 16.82 0 0 0-1.99 5.03l-.664.352a86.79 86.79 0 0 0-1.781.974c-.598.326-1.186.661-1.772 1.003l-.517.302c-.415.238-.829.475-1.232.724-1.905 1.123-3.929 2.424-6.366 4.095l-12.054-7.028-.91 1.562 33.663 19.624.106.062 2.099-.868-18.012-10.5h.002A108.24 108.24 0 0 1 32.744 52h.002l30.298 10.855.09.034 2.487-1.03-17.442-6.25M67.115 28.376c-.631-.7-1.558-1.121-2.55-1.16l-.144-.002c-1.918 0-3.507 1.393-3.615 3.168a3.077 3.077 0 0 0 .893 2.386c.634.648 1.506 1.025 2.46 1.063l.14.003c1.922 0 3.514-1.394 3.626-3.17a3.096 3.096 0 0 0-.81-2.288"/>
    </g>
</svg>
