<?xml version="1.0" encoding="UTF-8" standalone="no"?>
<svg
   xmlns:dc="http://purl.org/dc/elements/1.1/"
   xmlns:cc="http://creativecommons.org/ns#"
   xmlns:rdf="http://www.w3.org/1999/02/22-rdf-syntax-ns#"
   xmlns:svg="http://www.w3.org/2000/svg"
   xmlns="http://www.w3.org/2000/svg"
   xmlns:sodipodi="http://sodipodi.sourceforge.net/DTD/sodipodi-0.dtd"
   xmlns:inkscape="http://www.inkscape.org/namespaces/inkscape"
   width="80"
   height="80"
   viewBox="0 0 80 80"
   version="1.1"
   id="svg4503"
   sodipodi:docname="alpine-skiing-technical-hover.svg"
   inkscape:version="0.92.1 r15371">
  <metadata
     id="metadata4509">
    <rdf:RDF>
      <cc:Work
         rdf:about="">
        <dc:format>image/svg+xml</dc:format>
        <dc:type
           rdf:resource="http://purl.org/dc/dcmitype/StillImage" />
        <dc:title></dc:title>
      </cc:Work>
    </rdf:RDF>
  </metadata>
  <defs
     id="defs4507" />
  <sodipodi:namedview
     pagecolor="#ffffff"
     bordercolor="#666666"
     borderopacity="1"
     objecttolerance="10"
     gridtolerance="10"
     guidetolerance="10"
     inkscape:pageopacity="0"
     inkscape:pageshadow="2"
     inkscape:window-width="1920"
     inkscape:window-height="1017"
     id="namedview4505"
     showgrid="false"
     inkscape:zoom="11.8"
     inkscape:cx="26.287921"
     inkscape:cy="39.733631"
     inkscape:window-x="-8"
     inkscape:window-y="-8"
     inkscape:window-maximized="1"
     inkscape:current-layer="g4501" />
  <g
     fill="#0088CE"
     fill-rule="evenodd"
     id="g4501">
    <path
       d="m 49.202831,53.428475 c 1.18,-1.2 4.567,-4.953 4.602,-4.99 a 2.17,2.17 0 0 0 0.291,-0.428 2.11,2.11 0 0 0 0.138,-1.622 2.113,2.113 0 0 0 -1.048,-1.242 351.002,351.002 0 0 0 -6.034,-3.045 180.58,180.58 0 0 0 -2.036,-0.985 l -0.493,-0.224 -0.088,0.257 a 9.055,9.055 0 0 0 -0.494,3.102 l 0.002,0.125 0.106,0.074 c 0.343,0.237 0.74,0.504 1.18,0.804 0.918,0.616 2.019,1.35 3.188,2.116 h -0.002 a 119.771,119.771 0 0 0 -2.75,2.684 l -4.19,4.276 -8.44,-3.028 c 0.16,-0.092 1.66,-0.92 3.112,-1.72 l 0.351,-0.195 c 1.328,-0.731 2.557,-1.41 2.69,-1.486 0.458,-0.264 1.04,-0.727 1.209,-1.42 0.056,-0.23 0.11,-0.465 0.142,-0.7 0.054,-0.431 0.106,-0.818 0.211,-1.22 0.518,-1.958 1.528,-3.797 2.848,-5.182 0.168,-0.177 0.345,-0.352 0.528,-0.518 a 9.69,9.69 0 0 1 0.876,-0.714 c 0.238,-0.188 0.51,-0.36 0.773,-0.525 l 0.52,-0.304 c 0.267,-0.144 0.543,-0.295 0.85,-0.426 0.237,-0.122 0.51,-0.224 0.776,-0.327 l 0.078,-0.028 c 0.11,-0.04 0.222,-0.084 0.31,-0.121 l 0.65,-0.205 11.59,14.745 0.11,0.138 2.515,-0.888 v -0.174 c 0,-0.166 0,-0.357 -0.005,-0.575 a 47.482,47.482 0 0 0 -0.115,-2.998 28.763,28.763 0 0 0 -0.49,-3.714 20.086,20.086 0 0 0 -0.927,-3.223 l -0.252,-0.616 c -0.059,-0.156 -0.134,-0.32 -0.24,-0.548 l -0.166,-0.36 c -0.069,-0.15 -0.14,-0.304 -0.222,-0.467 l -1.014,-1.855 -3.22,1.858 0.463,0.805 0.153,0.28 0.298,0.58 c 0.06,0.115 0.119,0.241 0.19,0.397 l 0.095,0.207 c 0.092,0.201 0.179,0.382 0.242,0.546 l 0.216,0.533 c 0.254,0.657 0.635,1.648 0.959,2.717 0.293,0.956 0.58,2.094 0.83,3.284 l 0.113,0.554 -9.182,-11.677 h 0.002 a 22.337,22.337 0 0 1 3.91,-0.327 l 0.565,0.005 c 1.195,0 2.18,-0.96 2.198,-2.145 a 2.177,2.177 0 0 0 -0.524,-1.441 c -5.022,-5.845 -11.87,-6.477 -14.581,-6.477 -0.481,0 -0.958,0.017 -1.424,0.052 l -2.5,0.293 -0.57,0.098 a 27.04,27.04 0 0 0 -2.288,0.554 c -0.457,0.122 -0.788,0.237 -1.06,0.33 l -14.014,-11.17 -0.297,2.071 15.51,12.28 0.117,-0.028 c 0.196,-0.045 0.41,-0.094 0.64,-0.136 a 26.41,26.41 0 0 1 1.968,-0.346 l 2.244,-0.177 0.584,-0.01 c 2.218,0 4.3,0.384 6.187,1.139 a 15.18,15.18 0 0 1 1.91,0.915 c -0.315,0.055 -0.628,0.113 -0.941,0.18 l -0.432,0.09 c -0.08,0.018 -0.166,0.043 -0.254,0.069 l -1.445,0.427 c -0.419,0.143 -0.816,0.28 -1.2,0.453 -0.485,0.193 -0.947,0.426 -1.426,0.673 l -0.285,0.154 c -0.455,0.264 -0.925,0.54 -1.367,0.86 -0.95,0.666 -1.815,1.42 -2.573,2.246 a 15.877,15.877 0 0 0 -1.923,2.59 16.82,16.82 0 0 0 -1.99,5.03 l -0.664,0.352 a 86.79,86.79 0 0 0 -1.781,0.974 c -0.598,0.326 -1.186,0.661 -1.772,1.003 l -0.517,0.302 c -0.415,0.238 -0.829,0.475 -1.232,0.724 -1.905,1.123 -3.929,2.424 -6.366,4.095 l -12.054,-7.028 -0.91,1.562 33.663,19.624 0.106,0.062 2.099,-0.868 -18.012,-10.5 h 0.002 a 108.24,108.24 0 0 1 2.831,-1.806 h 0.002 l 30.298,10.855 0.09,0.034 2.487,-1.03 -17.442,-6.25 m 18.936,-27.233 c -0.631,-0.7 -1.558,-1.121 -2.55,-1.16 l -0.144,-0.002 c -1.918,0 -3.507,1.393 -3.615,3.168 a 3.077,3.077 0 0 0 0.893,2.386 c 0.634,0.648 1.506,1.025 2.46,1.063 l 0.14,0.003 c 1.922,0 3.514,-1.394 3.626,-3.17 a 3.096,3.096 0 0 0 -0.81,-2.288"
       id="path4499"
       inkscape:connector-curvature="0"
       style="stroke:#f39000;stroke-opacity:0.01507538;fill:#f39000;fill-opacity:0.99497485" />
  </g>
</svg>
