<svg xmlns="http://www.w3.org/2000/svg" width="1920" height="755" viewBox="0 0 1920 755">
    <g fill="none" fill-rule="evenodd">
        <path fill="#67B8E7" d="M507.182 0v166.51h321.12v313.454H528.124l201.191 274.227h828.13v-90.518h362.298V249.776h-906.436V.001z"/>
        <path fill="#006DB7" d="M507.182 166.508V754.19h222.134L528.125 479.963H828.3V166.508z"/>
        <path fill="#0088CD" d="M131.203 754.19h202.482l-101.22-139.1zM393.675 166.509h113.508V0H393.675zM0 166.509h71.127V0H0zM1013.308 249.778h906.437V.002h-906.436zM1557.446 754.19h362.299v-90.515h-362.299z"/>
        <path fill="#005795" d="M71.127 0v166.51H0V754.19h131.203l101.263-139.1 101.218 139.1H507.18V166.51H393.673V.001z"/>
    </g>
</svg>
