<svg xmlns="http://www.w3.org/2000/svg" width="80" height="80" viewBox="0 0 80 80">
    <g fill="#0088CE" fill-rule="evenodd">
        <path d="M55.316 22.378c-.125.955.13 1.912.697 2.632a2.985 2.985 0 0 0 2.36 1.162c1.644 0 3.113-1.372 3.346-3.126a3.52 3.52 0 0 0-.622-2.532c-.521-.713-1.279-1.158-2.128-1.242-1.777-.197-3.408 1.242-3.653 3.106M49.35 21.375l-.553-1.561 8.373-3.015-.619-1.718-21.608 7.702 1.478 4.186"/>
        <path d="M52.686 54.6l.109-.653c.04-.223.08-.46.13-.666l.88-3.708.697-2.636c.142-.494.3-1.028.439-1.468l.096-.304a2.007 2.007 0 0 0-.784-2.273 228.563 228.563 0 0 0-4.45-2.978 85.885 85.885 0 0 0-1.484-.95l-.408-.25-1.033 3.451.684.631c.75.691 1.686 1.54 2.683 2.43l-.09.219c-.16.4-.305.799-.45 1.188l-.137.379c-.168.503-.327.993-.476 1.455-.114.374-.207.728-.295 1.066l-.268 1.036-.396 1.826c-.056.238-.095.452-.139.712l-.188 1.076-12.597-1.08 3.24-4.434c4.59-6.284 11.47-16.071 15.163-21.346l.065-.093a2.209 2.209 0 0 0-2.063-3.454c-1.787.205-3.332.644-4.607 1.048-1.214.388-2.478.877-3.984 1.54a44.492 44.492 0 0 0-6.377 3.517 39.05 39.05 0 0 0-3.998 3.043c-.318.276-.576.522-.783.72l-.29.274-19.1-11.052.151 2.202 20.297 11.744.14.081.131-.095c.502-.364 1.022-.72 1.472-1.027l.196-.15a40.46 40.46 0 0 1 3.791-2.55 43.035 43.035 0 0 1 5.968-2.916 46.582 46.582 0 0 1 1.698-.625v.002c-5.244 6.918-9.293 12.332-12.038 16.092l-6.835 9.357 1.933 3.89-16.882-3.706-.392 1.785 33.979 7.469 2.205-1.385-17.516-3.856 3.174-4.346 31.862 2.724.098.01 2.08-1.657"/>
    </g>
</svg>
