<svg xmlns="http://www.w3.org/2000/svg" xmlns:xlink="http://www.w3.org/1999/xlink" width="588" height="213" viewBox="0 0 588 213">
    <defs>
        <path id="a" d="M.546.21h110.206V131.06H.546z"/>
        <path id="c" d="M.721.08h180.721v95.24H.721z"/>
        <path id="e" d="M.146.214h477.513v185.967H.146z"/>
    </defs>
    <g fill="none" fill-rule="evenodd">
        <g transform="translate(477.168 -1)">
            <mask id="b" fill="#fff">
                <use xlink:href="#a"/>
            </mask>
            <path fill="#F39500" d="M112.063 118.548V.211L.546 131.059c37.818-1.948 75.03-6.156 111.517-12.511" mask="url(#b)"/>
        </g>
        <g transform="translate(406.478 117.469)">
            <mask id="d" fill="#fff">
                <use xlink:href="#c"/>
            </mask>
            <path fill="#005794" d="M.721 95.32h182.034V.08c-36.491 6.355-73.699 10.56-111.518 12.508L.721 95.32z" mask="url(#d)"/>
        </g>
        <g transform="translate(0 26.608)">
            <mask id="f" fill="#fff">
                <use xlink:href="#e"/>
            </mask>
            <path fill="#0087CD" d="M407.2 186.18l70.765-82.732c-16.042.817-32.18 1.261-48.418 1.261C274.768 104.71 128.807 66.974.355.214v185.967h406.844z" mask="url(#f)"/>
        </g>
    </g>
</svg>
