<svg xmlns="http://www.w3.org/2000/svg" width="80" height="80" viewBox="0 0 80 80">
    <g fill="#0088CE" fill-rule="evenodd">
        <path d="M66.316 54.08l1.588-1.604-17.933-1.295a13.8 13.8 0 0 1 .317-1.33l.184-.622c.104-.357.2-.688.306-.972l.248-.716c.453-1.266 1.294-3.621 2.271-5.823l.104-.226a1.9 1.9 0 0 0-.517-2.208 252 252 0 0 0-4.019-3.298c-.415-.332-1.182-.927-1.556-1.215l-.23-.175-.125.264c-.387.825-.72 1.808-.961 2.847l-.029.12.579.637c.673.738 1.519 1.651 2.428 2.617-.91 1.685-1.73 3.478-2.243 4.922l-.277.804c-.127.339-.254.771-.387 1.226l-.182.617c-.07.252-.137.533-.2.8l-.186.813c-.019.09-.033.18-.045.263l-.047.327L32.6 49.93l9.347-10.396c.197-.222.358-.486.462-.762 0 0 .129-.347.161-.418l.09-.212c.028-.07.058-.142.091-.212l.422-.888c.272-.552.606-1.149 1.017-1.819a25.488 25.488 0 0 1 2.682-3.58c1.997-2.265 4.588-4.211 7.5-5.625l.097-.045c.4-.197.725-.51.935-.908a2.104 2.104 0 0 0-.872-2.843 4.768 4.768 0 0 0-.251-.124l-.375-.174c-.186-.081-.375-.16-.562-.237a18.463 18.463 0 0 0-1.126-.404 20.75 20.75 0 0 0-2.27-.585 20.437 20.437 0 0 0-2.275-.292 18.235 18.235 0 0 0-2.232.003c-1.383.086-2.77.376-4.126.858-1.135.407-2.25.971-3.319 1.676a17.562 17.562 0 0 0-3.885 3.642c-.33.397-.56.732-.755 1.017l-.283.42-18.351 3.214 1.106 1.545 20.37-3.569.053-.068c1.572-1.873 2.86-2.775 3.664-3.205 2.036-1.084 3.851-1.602 5.714-1.636.521-.011 1.075.013 1.707.074.31.037.62.083.93.138a26.292 26.292 0 0 0-4.77 4 28.934 28.934 0 0 0-3.303 4.173 27.31 27.31 0 0 0-1.274 2.172l-.54 1.092c-.059.121-.112.248-.173.388l-.152.322-11.546 12.81-.094.106 1.41 3.82-15.261-4.328-.466 1.648L49.41 61.28l.102.031 1.9-1.244-22.264-6.284 2.004-2.242M59.048 24.352c.26.078.528.114.795.114 1.373 0 2.646-.973 3.091-2.367.264-.828.211-1.693-.15-2.438a2.803 2.803 0 0 0-1.753-1.498 2.835 2.835 0 0 0-.797-.116c-1.37 0-2.642.974-3.087 2.367-.273.861-.199 1.787.204 2.544a2.803 2.803 0 0 0 1.697 1.394"/>
    </g>
</svg>
