<svg xmlns="http://www.w3.org/2000/svg" width="80" height="80" viewBox="0 0 80 80">
    <g fill="#0088CE" fill-rule="evenodd">
        <path d="M53.612 29.092c1.758.61 3.76-.426 4.467-2.304.339-.904.33-1.877-.032-2.734a3.14 3.14 0 0 0-1.88-1.773c-1.755-.61-3.758.426-4.463 2.304-.704 1.88.153 3.9 1.908 4.507M46.283 40.97a2.388 2.388 0 0 0-.178-.043 379.718 379.718 0 0 0-6.712-1.252c-.908-.16-1.666-.288-2.198-.371a29.02 29.02 0 0 0-.417-.064c-.467.898-.868 1.946-1.236 3.215.001.02.29.128.799.301.508.175 1.238.415 2.116.698 1.138.366 2.528.804 4.017 1.264-.239.712-.454 1.414-.656 2.093-.187.708-.365 1.386-.534 2.02-.14.64-.262 1.237-.37 1.774l-.056.294c-.032.188-.098.453-.141.777l-.358 2.37c-.117.863-.187 1.734-.259 2.384l-.107 1.063h5.242l.06-.576c.066-.596.128-1.393.235-2.186l.33-2.177c.039-.298.1-.541.13-.713l.053-.271c.096-.494.194-1.046.302-1.64l.384-1.877c.148-.652.3-1.334.467-2.019l.262-1.027c.09-.323.183-.647.275-.97l.088-.314a2.23 2.23 0 0 0-1.538-2.753"/>
        <path d="M56.841 46.559c.185.085.35.164.51.236l2.46-2.802a10.453 10.453 0 0 0-.26-.134l-.445-.218c-.174-.09-.365-.204-.583-.324a9.143 9.143 0 0 1-.71-.428c-.127-.083-.263-.161-.395-.255l-.412-.297c-.29-.194-.569-.445-.879-.686-.292-.267-.613-.53-.912-.847-1.239-1.22-2.481-2.91-3.441-5.007a21.435 21.435 0 0 1-1.23-3.391 22.457 22.457 0 0 1-.421-1.85 19.53 19.53 0 0 1-.15-.94c-.022-.157-.09-.85-.088-.869v-.005c-.069-1.179-.916-2.136-2.085-2.156l-.236-.004c-2.473-.042-5.07.37-7.476 1.299-2.413.917-4.608 2.317-6.452 3.934-1.852 1.619-3.376 3.443-4.613 5.283a28.822 28.822 0 0 0-2.477 4.506l-14.458 7.261v6.054s17.17-8.628 17.777-8.935l.011-.005a2.69 2.69 0 0 0 1.301-1.449c.293-.771.656-1.586 1.081-2.416.322-.626.681-1.26 1.076-1.893 1.009-1.607 2.254-3.196 3.739-4.578 1.42-1.322 3.06-2.44 4.846-3.198 1.19-.51 2.445-.85 3.72-1.039.007.026.011.052.017.078.172.754.375 1.487.602 2.2a25.599 25.599 0 0 0 1.675 4.015c1.288 2.489 2.946 4.527 4.588 5.974.398.374.819.688 1.206.997.405.284.773.571 1.15.795l.538.337c.173.106.348.194.51.286.33.183.632.346.916.47M67.932 54.29a1.602 1.602 0 0 0-1.6-1.595l-.531.001-1.384-3.062a.913.913 0 0 0-.833-.539l-5.126.007.81 1.83 3.724-.005.8 1.772-6.32.008c-.88.001-1.597.72-1.596 1.6l.003 1.596c.001.84.658 1.53 1.483 1.59.039.003.077.006.116.006l3.163-.004 5.699-.008a1.602 1.602 0 0 0 1.594-1.6"/>
    </g>
</svg>
