<svg xmlns="http://www.w3.org/2000/svg" width="80" height="80" viewBox="0 0 80 80">
    <g fill="#0088CE" fill-rule="evenodd">
        <path d="M46.543 55.914c-.441-3.268-1.441-8.55-1.85-10.67a302.048 302.048 0 0 0-.94-4.672 90.638 90.638 0 0 0-.25-1.166l-.085-.39-.309.251a18.684 18.684 0 0 1-2.808 1.915l-.135.074.009.154c.075 1.186.182 2.72.31 4.4.165 2.128.593 7.44 1.04 10.78l.705 5.22h-2.646l-1.072 1.792h10.954l1.07-1.792h-3.2M51.172 26.212a2.904 2.904 0 0 0 2.408-.225c1.513-.857 2.025-2.901 1.139-4.559-.602-1.121-1.717-1.821-2.911-1.821-.512 0-.995.127-1.436.38-1.514.857-2.023 2.905-1.137 4.56.428.802 1.115 1.394 1.937 1.665M67.135 30.755l-.691.136c-.084.016-.171.029-.272.044l-.231.036c-.527.086-1.61.23-2.956.242l-.33.002c-1.053 0-2.2-.065-3.31-.194a42.122 42.122 0 0 1-3.13-.488l-.63-.131c-.364-.071-.86-.204-1.294-.318-.193-.052-.326-.094-.452-.135l-1.537-.528-1.329 3.596 1.644.569c.193.058.387.123.58.176.586.155 1.147.304 1.575.39.22.044.4.083.538.115l.182.033c1.055.2 2.339.328 3.617.358a25.961 25.961 0 0 0 4.137-.236 19.253 19.253 0 0 0 3.37-.78l.223-.076c.127-.043.243-.083.354-.127l.792-.34M44.047 35.322a31.929 31.929 0 0 0 2.729-2.07 31.086 31.086 0 0 0 1.885-1.745l.628-.662a2.21 2.21 0 0 0 .492-.841 2.17 2.17 0 0 0-.499-2.135 1.619 1.619 0 0 0-.571-.389l-.244-.097c-.29-.12-.565-.24-.837-.359l-.216-.09a14.04 14.04 0 0 1-.595-.262 14.554 14.554 0 0 1-.786-.378l-.111-.055c-.22-.113-.44-.222-.657-.35-.87-.467-1.743-1.018-2.826-1.792a27.794 27.794 0 0 1-4.302-3.902c-1.27-1.485-2.065-2.653-2.425-3.215l-.554-.881-2.702 2.019.32.617c.357.662 1.16 2.037 2.517 3.82a30.628 30.628 0 0 0 4.687 4.74c1.158.92 2.168 1.634 3.17 2.234.197.127.394.241.595.357a28.913 28.913 0 0 1-2.236 1.545 22.895 22.895 0 0 1-5.11 2.41c-1.62.534-3.292.817-4.97.836l-.228.003c-.599 0-1.217-.044-1.987-.137l-1.01-.17-1.53-.414-1.47-.559c-1.183-.47-2.684-1.38-4.115-2.496l-.53-.418c-.187-.149-.364-.286-.515-.435L17.93 27.98l-.43-.452-1.6-1.918-3.892 3.238 1.957 2.296 1.6 1.657 1.146 1.055c.197.193.41.36.623.527l.644.513c1.75 1.367 3.656 2.518 5.225 3.151l1.083.437 1.735.552c.366.094.745.19 1.152.287l1.376.221a20.313 20.313 0 0 0 2.425.149 20.967 20.967 0 0 0 6.99-1.249 27.176 27.176 0 0 0 5.718-2.879"/>
    </g>
</svg>
