<svg xmlns="http://www.w3.org/2000/svg" width="80" height="80" viewBox="0 0 80 80">
    <g fill="#0088CE" fill-rule="evenodd">
        <path d="M47.037 63.312l-.332-.212c-.349-.226-.742-.48-1.18-.746l-.396-.226a26.28 26.28 0 0 0-1.518-.828 32.451 32.451 0 0 0-4.484-1.9 28.89 28.89 0 0 0-4.14-1.084s-.34-.06-.855-.143l-.24-.033-.089.08c-.667.593-2.188 1.94-3.395 3.008l-.76.674.926.02c.126.002.263.005.425.014l.3.02c.188.01.38.018.584.044.563.045 1.127.12 1.646.192l.755.123c.998.179 2.324.43 3.74.785 1.349.335 2.8.788 4.204 1.317.464.163.9.347 1.349.533l1.995.89c.43.22.773.387 1.013.504.094.045.205.104.306.159l.075.038.128-.22-.123.222.21.12 1.425-2.222-.575-.411a54.452 54.452 0 0 0-.994-.718M20.766 61.193c-.327 0-.65.041-.964.124-.906.242-1.666.792-2.139 1.553-.468.765-.593 1.644-.35 2.468.4 1.392 1.776 2.364 3.344 2.364.323 0 .648-.044.964-.126.942-.249 1.745-.85 2.202-1.659.415-.733.519-1.57.291-2.36-.404-1.392-1.781-2.364-3.348-2.364M65.39 39.628L47.277 28.004a57.26 57.26 0 0 0 .996-3.445l15.679 8.262-.255-2.227-35.186-18.541-.86 1.638L43.5 22.042a38.48 38.48 0 0 1-.562 2.249c-.067.246-.143.51-.22.777v.002l-10.974-7.055-1 1.556 11.399 7.331c-.32.973-.663 1.932-1.015 2.857a79.175 79.175 0 0 1-2.26 5.34c-.609 1.299-1.068 2.202-1.157 2.38-1.65 3.265-3.54 6.549-5.465 9.498a97.993 97.993 0 0 1-5.092 7.108l-.072-.186a54.198 54.198 0 0 0-1.659-3.983 51.734 51.734 0 0 0-3.61-6.543 42.497 42.497 0 0 0-3.085-4.17c-.344-.41-.633-.733-.85-.974l-.163-.182-2.606 2.188.226.313c.176.241.417.577.612.842a45.493 45.493 0 0 1 2.601 3.997 50.265 50.265 0 0 1 3.027 6.206 52.136 52.136 0 0 1 1.957 5.726c.09.333.179.67.26 1.006l.12.497c.037.16.08.35.101.465a2.256 2.256 0 0 0 3.873 1.117l.174-.19a95.442 95.442 0 0 0 2.652-3.002 93.47 93.47 0 0 0 5.713-7.428 89.961 89.961 0 0 0 2.365-3.607l.617-.83c.583-.8 1.38-1.917 2.25-3.134l2.733-3.708c.458-.595.889-1.174 1.287-1.712.41-.553.79-1.064 1.127-1.495l.477-.639c.232-.322.541-.7.89-1.13l.19-.229c.273-.353.556-.665.814-.953.098-.105.192-.211.263-.293l.28-.283 15.804 10.158"/>
    </g>
</svg>
