<svg xmlns="http://www.w3.org/2000/svg" width="20" height="14" viewBox="0 0 20 14">
    <g fill="none" fill-rule="evenodd">
        <path d="M-6.727-9h32v32h-32z"/>
        <path fill="#006DB7" d="M6.716 5.776h5.927c.412 2.962-.833 7.406-5.927 7.406C3.31 13.182.546 10.414.546 7A6.176 6.176 0 0 1 6.715.818c1.6 0 3.056.61 4.153 1.609C9.577 3.649 9.619 3.72 9.112 4.23c-.634-.525-1.325-.902-2.396-.902-2.024 0-3.604 1.644-3.604 3.672 0 2.028 1.58 3.672 3.604 3.672 2 0 2.814-.864 3.337-2.451l-3.337.003V5.776zm11.12.122h2.138v1.53h-2.138v2.204h-1.527V7.428h-2.2v-1.53h2.2V3.756h1.527v2.142z"/>
    </g>
</svg>
