<svg xmlns="http://www.w3.org/2000/svg" width="80" height="80" viewBox="0 0 80 80">
    <g fill="#0088CE" fill-rule="evenodd">
        <path d="M29.372 48.582a2.261 2.261 0 0 0 1.4-.65 538.367 538.367 0 0 0 6.058-6.18l1.303-1.359-2.977-2.742-.186.152a550.517 550.517 0 0 0-6.87 5.699l-2.202.08c-.701.037-1.39.1-2.06.157l-.87.076-2.664.346c-.636.096-1.239.212-1.865.33l-.38.078c-.082 0-1.4.276-1.424.28l-2.956.728c-.4.085-.783.204-1.164.322l-.396.123v5.955l1.998-.612c.328-.1.667-.206 1.022-.284l2.722-.668c.762-.158 1.27-.255 1.274-.256l2.11-.425 2.453-.436c.357-.05.708-.105 1.125-.168.513-.078 1.036-.16 1.557-.224M67.178 18.388c-.626-.803-1.51-1.289-2.491-1.362-2.072-.169-3.874 1.519-4.095 3.69-.114 1.103.209 2.199.884 3.006a3.459 3.459 0 0 0 2.657 1.26c1.934 0 3.62-1.626 3.84-3.704.106-1.059-.178-2.085-.795-2.89"/>
        <path d="M43.735 30.64c-1.094 1.792-1.964 3.764-2.655 6.037l-9.196-12.903a24.606 24.606 0 0 1 5.327-1.725 21.319 21.319 0 0 1 8.458.102c1.602.356 3.151.88 4.604 1.55l.287.137v.002c-.737.425-1.366.84-1.92 1.27a19.847 19.847 0 0 0-2.754 2.583 21.597 21.597 0 0 0-2.151 2.947m1.851 12.362l.025-.318c.017-.193.04-.384.06-.58a26.297 26.297 0 0 1 .732-3.702c.519-1.867 1.202-3.541 2.03-4.974.48-.832 1-1.586 1.539-2.247.587-.7 1.233-1.348 1.925-1.92.624-.522 1.37-1.007 2.281-1.49.817-.44 1.72-.749 2.568-1.018l.167-.052a2.507 2.507 0 0 0 .812-4.336 6.618 6.618 0 0 0-.352-.268l-.376-.269c-.222-.15-.444-.302-.667-.442a24.79 24.79 0 0 0-1.35-.8 27.336 27.336 0 0 0-8.427-2.985 25.6 25.6 0 0 0-5.454-.352 24.99 24.99 0 0 0-4.794.68 27.082 27.082 0 0 0-6.582 2.583c-.416.22-.768.425-1.067.61l-.761.482 12.527 17.628a19.262 19.262 0 0 0-.456 2.923L29.17 61.735h-2.4l-1.047 2.01h12.43l1.049-2.01h-3.525l9.07-16.436 10.87 15.251c.316.445.605.675.969.776l9.388 2.421v-3.511l-9.229-1.58"/>
    </g>
</svg>
