<svg xmlns="http://www.w3.org/2000/svg" width="17" height="16" viewBox="0 0 17 16">
    <g fill="none" fill-rule="evenodd">
        <path d="M-7.09-8h32v32h-32z"/>
        <path fill="#006DB7" d="M8.91 1.441c2.135 0 2.388.009 3.232.047.78.036 1.203.166 1.485.276.374.145.64.318.92.598.28.28.453.546.599.92.11.282.24.705.275 1.485.038.844.047 1.097.047 3.233s-.009 2.39-.047 3.233c-.036.78-.166 1.203-.275 1.485-.146.374-.319.64-.599.92-.28.28-.546.453-.92.598-.282.11-.705.24-1.485.276-.844.038-1.097.047-3.233.047s-2.39-.009-3.233-.047c-.78-.036-1.203-.166-1.485-.276a2.478 2.478 0 0 1-.92-.598 2.478 2.478 0 0 1-.598-.92c-.11-.282-.24-.705-.276-1.485-.038-.844-.046-1.097-.046-3.233s.008-2.39.046-3.233c.036-.78.166-1.203.276-1.485.145-.374.318-.64.598-.92.28-.28.547-.453.92-.598.282-.11.705-.24 1.485-.276.844-.038 1.097-.047 3.233-.047M8.91 0c2.173 0 2.445.01 3.298.048.852.039 1.434.174 1.942.372.526.204.973.478 1.417.923.445.444.719.89.923 1.417.198.509.333 1.09.372 1.942.039.853.048 1.125.048 3.298s-.01 2.445-.048 3.298c-.039.852-.174 1.433-.372 1.942a3.921 3.921 0 0 1-.923 1.417c-.444.445-.89.719-1.417.923-.508.198-1.09.333-1.942.372-.853.039-1.125.048-3.298.048s-2.445-.01-3.298-.048c-.852-.039-1.433-.174-1.942-.372a3.921 3.921 0 0 1-1.417-.923 3.922 3.922 0 0 1-.923-1.417c-.198-.509-.333-1.09-.372-1.942C.918 10.445.91 10.173.91 8s.01-2.445.048-3.298c.04-.852.174-1.433.372-1.942.205-.526.478-.973.923-1.417.445-.445.89-.719 1.417-.923C4.178.222 4.759.087 5.61.048 6.464.01 6.736 0 8.909 0zm.016 3.905a4.111 4.111 0 1 0 0 8.222 4.111 4.111 0 0 0 0-8.222zm0 6.78a2.669 2.669 0 1 1 0-5.338 2.669 2.669 0 0 1 0 5.337zm5.19-6.97a.952.952 0 1 0-1.904 0 .952.952 0 0 0 1.904 0z"/>
    </g>
</svg>
