<svg xmlns="http://www.w3.org/2000/svg" width="237" height="28" viewBox="0 0 237 28">
    <g fill="none" fill-rule="evenodd">
        <path fill="#005795" d="M44.885 21.08a3.86 3.86 0 0 1-3.856-3.854 3.86 3.86 0 0 1 3.856-3.854 3.857 3.857 0 0 1 3.853 3.854 3.857 3.857 0 0 1-3.853 3.853M44.885 10.22a3.86 3.86 0 0 1-3.856-3.857 3.86 3.86 0 0 1 3.856-3.853 3.857 3.857 0 0 1 3.853 3.853 3.857 3.857 0 0 1-3.853 3.858M17.475 1H12.77c-.197 0-.302.104-.302.3v13.605c0 2.757-1.296 4.13-3.581 4.13s-3.58-1.373-3.58-4.13V1.3c0-.195-.106-.298-.303-.298H.298C.1 1 0 1.104 0 1.299v13.742c0 1.275.19 2.446.57 3.509a7.52 7.52 0 0 0 1.68 2.738c.74.763 1.65 1.347 2.74 1.76 1.084.417 2.486.612 3.897.592 1.412.02 2.813-.175 3.898-.592 1.089-.413 1.999-.997 2.74-1.76.74-.763 1.297-1.675 1.678-2.738.382-1.063.572-2.234.572-3.51V1.3c0-.196-.1-.3-.3-.3M39.17 23.023c-.866-2.622-6.813-21.565-6.847-21.684-.074-.233-.242-.339-.425-.339h-5.514c-.18 0-.358.135-.421.34-.038.118-5.981 19.06-6.849 21.683-.062.196.038.314.225.314h4.983c.182 0 .27-.094.317-.27.05-.176 4.195-14.785 4.445-15.64.006-.024.024-.036.059-.036.034 0 .05.012.058.038.252.865 4.397 15.462 4.445 15.637.048.177.137.271.319.271h4.978c.19 0 .292-.118.227-.314"/>
        <path fill="#67B8E7" d="M55.116 11.778C55.116 5.423 60.014.463 66.71.463s11.594 4.96 11.594 11.315c0 6.51-4.898 11.594-11.594 11.594s-11.594-5.084-11.594-11.594zm5.611 0c0 3.782 2.666 6.634 5.983 6.634 3.317 0 5.983-2.852 5.983-6.634 0-3.627-2.666-6.355-5.983-6.355-3.317 0-5.983 2.728-5.983 6.355zm18.569 6.541c2.635-.341 4.433-2.263 4.433-10.199V.835h14.88V23h-5.425V5.485h-4.309v2.697c0 10.912-3.348 15.066-9.579 15.066v-4.929zM103.259 23V.835h5.425V23h-5.425zm9.207 0L114.295.835h5.89l3.224 9.362c.496 1.426 1.116 3.658 1.116 3.658h.062s.62-2.232 1.116-3.658l3.224-9.362h5.89L136.615 23h-5.425l-.682-9.982c-.124-1.674 0-3.72 0-3.72h-.062s-.744 2.325-1.24 3.72l-2.325 6.417h-4.65l-2.325-6.417c-.496-1.395-1.24-3.72-1.24-3.72h-.062s.124 2.046 0 3.72L117.922 23h-5.456zm27.962 0V.835h18.724V23h-5.425V5.454h-7.874V23h-5.425zm23.374 0V.835h5.425V23h-5.425zm7.657 0L178.992.835h5.704L192.229 23h-5.58l-1.364-4.65h-6.913L177.039 23h-5.58zm8.184-8.99h4.371l-1.24-4.309c-.403-1.395-.899-3.813-.899-3.813h-.062s-.496 2.418-.899 3.813l-1.271 4.309zm20.584 4.371h6.851V5.485h-4.433v1.023c0 3.534-.589 8.463-2.418 11.873zm-7.843 0h2.294c2.263-3.937 2.821-8.308 2.821-12.307V.835h15.004v17.546h2.48v8.959h-4.805V23h-12.803v4.34h-4.991v-8.959zM215.975 23L223.508.835h5.704L236.745 23h-5.58l-1.364-4.65h-6.913L221.555 23h-5.58zm8.184-8.99h4.371l-1.24-4.309c-.403-1.395-.899-3.813-.899-3.813h-.062s-.496 2.418-.899 3.813l-1.271 4.309z"/>
    </g>
</svg>
