<svg xmlns="http://www.w3.org/2000/svg" width="80" height="80" viewBox="0 0 80 80">
    <g fill="#0088CE" fill-rule="evenodd">
        <path d="M66.12 55.118c-.108-.059-.209-.117-.361-.202l-3.112-1.797-1.642-1.004c-.34-.203-.68-.423-1.073-.68-.201-.132-.402-.262-.6-.387l-4.795-3.189-4.103-2.879c-3.651-2.594-26.318-19.196-26.55-19.367l-.062-.043a3.757 3.757 0 0 0-2.193-.7 3.791 3.791 0 0 0-3.788 3.788c0 1.217.595 2.37 1.591 3.084h-.002l.616.487c2.878 2.28 14.92 11.824 16.639 13.177l.211.165 1.849-2.228c3.176 2.427 6.006 4.526 8.415 6.237l4.423 3.097 4.69 3.115c.208.133.418.272.626.406.37.24.74.48 1.12.71l4.153 2.465 5.793-3.33M13.5 39.054l41.335 23.01.094.052 4.126-.952-44.608-23.803M16.54 24.913c1.973-.445 3.231-2.549 2.809-4.696-.21-1.035-.779-1.923-1.6-2.507a3.448 3.448 0 0 0-2.755-.561c-1.974.445-3.23 2.548-2.805 4.691.368 1.828 1.884 3.156 3.606 3.156.25 0 .5-.029.745-.083"/>
    </g>
</svg>
