<svg xmlns="http://www.w3.org/2000/svg" width="80" height="80" viewBox="0 0 80 80">
    <g fill="#F39000" fill-rule="evenodd">
        <path d="M53.023 60.03a.477.477 0 0 1 .006-.035l.073-.289c.021-.08.04-.158.063-.262l-.235-.053.252-.015c.023-.095.046-.193.071-.286.047-.146.088-.286.128-.423l.024-.08c.088-.31.17-.58.256-.813l.203-.587c.34-.956 1.05-2.947 1.867-4.781l.08-.183a1.674 1.674 0 0 0-.456-1.957 217.443 217.443 0 0 0-3.307-2.714c-.323-.257-.91-.714-1.234-.962l-.358-.274-.188.41c-.304.66-.569 1.449-.768 2.284l-.042.185.516.572c.548.597 1.217 1.317 1.942 2.088-.739 1.379-1.398 2.828-1.814 3.989l-.227.657c-.102.278-.205.627-.314.996l-.156.53c-.06.213-.117.456-.178.717l-.143.62-.06.377-10.168-.734 7.517-8.364a2.1 2.1 0 0 0 .404-.664l.193-.485c.027-.066.055-.134.088-.209a18.545 18.545 0 0 1 1.176-2.204 20.986 20.986 0 0 1 2.191-2.928c1.632-1.848 3.75-3.44 6.127-4.595l.084-.038c.354-.176.638-.45.82-.797.231-.435.28-.936.135-1.408a1.837 1.837 0 0 0-.9-1.091 3.808 3.808 0 0 0-.228-.111l-.296-.139c-.153-.068-.31-.134-.464-.195a16.36 16.36 0 0 0-.936-.336 16.562 16.562 0 0 0-1.88-.486A17.04 17.04 0 0 0 51 34.714a15.646 15.646 0 0 0-1.848.006c-1.157.071-2.307.31-3.424.711-.948.338-1.875.807-2.759 1.393a14.653 14.653 0 0 0-3.219 3.015c-.28.34-.477.627-.622.839l-.208.31-13.699 2.4-.22.04-.525 1.763 17.064-2.99.113-.047.057-.067c.273-.32.733-.824.739-.83.69-.69 1.44-1.285 2.223-1.763.993-.59 2.605-1.3 4.644-1.333l.216-.005c.36 0 .743.022 1.17.064.155.02.312.041.47.067a21.81 21.81 0 0 0-3.702 3.133 24.013 24.013 0 0 0-2.727 3.448c-.412.64-.756 1.227-1.05 1.79-.144.275-.293.57-.449.91-.048.1-.092.201-.132.29l-.13.28-9.558 10.606-.145.163 1.06 2.83-12.294-3.479-.45 1.584 30.933 8.756 1.826-1.198-18.371-5.197 1.478-1.643 28.8 2.075.108.009 1.53-1.542M60.314 37.991c.224.064.455.098.686.098 1.18 0 2.272-.837 2.656-2.032a2.824 2.824 0 0 0-.128-2.095 2.435 2.435 0 0 0-2.207-1.393c-1.178 0-2.27.834-2.653 2.029a2.837 2.837 0 0 0 .176 2.183 2.445 2.445 0 0 0 1.47 1.21M55.04 16.673c.11.016.221.021.332.021 1.326 0 2.496-1.065 2.72-2.476a2.888 2.888 0 0 0-.455-2.077 2.46 2.46 0 0 0-1.72-1.065c-1.46-.192-2.808.926-3.05 2.456a2.868 2.868 0 0 0 .514 2.16c.41.55 1 .896 1.659.981M44.936 28.46l.277-2.178-19.621 12.05c.09-.133.174-.254.22-.312l1.447-1.932c.082-.106.168-.21.256-.319l1.264-1.547c.063-.073.122-.149.185-.221l1.326-1.495c.191-.222.393-.429.595-.636l2.63-2.622a66.503 66.503 0 0 1 7.381-5.989 78.142 78.142 0 0 1 4.659-3.005c1.606-.945 3.28-1.87 4.971-2.75l.084-.045c.334-.17.603-.438.783-.776.231-.439.278-.937.13-1.41a1.837 1.837 0 0 0-.909-1.093l-.327-.157a3.022 3.022 0 0 0-.286-.125c-.201-.08-.377-.151-.533-.2a12.123 12.123 0 0 0-1.06-.316c-.237-.066-.477-.112-.707-.16l-.343-.067c-.233-.04-.472-.075-.708-.106l-.306-.042a9.11 9.11 0 0 0-.657-.055l-.34-.026c-.296-.028-.588-.028-.896-.03h-.63c-.145 0-.292.002-.43.014l-.943.061c-2.068.175-4.097.634-6.389 1.45l-1.27.465-2.03.91c-.143.073-.281.147-.416.218l-.356.187c-.341.186-.626.338-.853.46l-.25.133.723 2.828 1.926-.86.471-.215 1.896-.729 1.165-.363c2.034-.615 3.87-.948 5.61-1.016l.917-.024c.111 0 .22.006.333.013l.335.015h.023l-.695.376c-1.766.983-3.451 2-5.011 3.033a60.966 60.966 0 0 0-7.984 6.281l-2.018 1.978-.82.852c-.206.211-.42.43-.62.664l-1.417 1.597c-.088.1-.174.208-.269.323l-1.35 1.65c-.071.09-.143.179-.212.268l-1.22 1.627-.552.758-.103.145 1.168 3.822-11.082 6.802.895 1.456 31.844-19.552"/>
    </g>
</svg>
