<svg xmlns="http://www.w3.org/2000/svg" width="140" height="135" viewBox="0 0 140 135">
    <g fill="none" fill-rule="evenodd">
        <path fill="#0078B3" d="M56.778 116.274c0-5.362-4.354-9.718-9.727-9.718-5.365 0-9.718 4.356-9.718 9.718 0 5.372 4.353 9.726 9.718 9.726.289 0 .567-.02.842-.04a11.49 11.49 0 0 1-.03-.773c0-.29.014-.573.042-.856-.283.026-.56.042-.854.042a8.099 8.099 0 0 1-8.096-8.099 8.095 8.095 0 0 1 8.096-8.095c4.477 0 8.106 3.621 8.106 8.095a8.1 8.1 0 0 1-5.582 7.7 8.22 8.22 0 0 0-.086 1.213c0 .167.004.336.01.5 4.186-1.084 7.279-4.887 7.279-9.413"/>
        <path fill="#DB334A" d="M98.778 116.274c0 5.372-4.358 9.726-9.738 9.726-5.088 0-9.268-3.902-9.698-8.87a8.09 8.09 0 0 1 1.674.355 8.103 8.103 0 0 0 8.024 6.888c4.48 0 8.114-3.626 8.114-8.099 0-4.474-3.634-8.095-8.114-8.095-4.314 0-7.842 3.36-8.1 7.598a9.353 9.353 0 0 0-1.607-.274c.393-5.003 4.589-8.947 9.707-8.947 5.38 0 9.738 4.356 9.738 9.718"/>
        <path fill="#009949" d="M86.28 125.336c-.257 4.242-3.784 7.6-8.098 7.6-4.48 0-8.114-3.628-8.114-8.1a8.11 8.11 0 0 1 5.585-7.706c.062-.392.089-.791.089-1.21 0-.164 0-.333-.011-.498-4.193 1.085-7.287 4.887-7.287 9.414 0 5.37 4.36 9.72 9.738 9.72a9.734 9.734 0 0 0 9.707-8.947c-.55-.047-1.09-.142-1.61-.273zm-8.098-8.607a8.11 8.11 0 0 1 8.021 6.893c.538.178 1.1.298 1.676.357-.43-4.972-4.606-8.868-9.697-8.868-.285 0-.562.01-.841.037a10.137 10.137 0 0 1-.008 1.627c.284-.029.561-.046.85-.046z"/>
        <path fill="#F1AB3D" d="M66.889 125.61c-.396 5.008-4.59 8.946-9.703 8.946-5.384 0-9.742-4.35-9.742-9.72 0-4.527 3.097-8.33 7.29-9.414a8.09 8.09 0 0 1-.078 1.708 8.106 8.106 0 0 0-5.584 7.706c0 4.472 3.63 8.1 8.114 8.1a8.105 8.105 0 0 0 8.095-7.6c.522.13 1.055.226 1.608.273zm-10.557-8.835a8.993 8.993 0 0 0 .01-1.627c.273-.027.558-.037.844-.037 5.086 0 9.263 3.896 9.695 8.868-.579-.06-1.139-.179-1.676-.357a8.111 8.111 0 0 0-8.873-6.847z"/>
        <path fill="#1D1C1B" d="M68.042 124.373a8.105 8.105 0 0 1-8.024-6.888 8.058 8.058 0 0 0-1.679-.356c.434 4.969 4.615 8.871 9.703 8.871.282 0 .562-.02.84-.04a10.808 10.808 0 0 1 .004-1.63 9.072 9.072 0 0 1-.844.043zm0-17.817c-5.122 0-9.315 3.944-9.709 8.947.55.049 1.09.134 1.607.274.26-4.239 3.785-7.598 8.102-7.598 4.48 0 8.108 3.621 8.108 8.095a8.102 8.102 0 0 1-5.582 7.7 7.303 7.303 0 0 0-.092 1.213c0 .167.003.336.012.5 4.194-1.084 7.29-4.887 7.29-9.413 0-5.362-4.363-9.718-9.736-9.718zM31.111 64.556H35v-31.89h-3.889z"/>
        <path fill="#009949" d="M63.778 64.556h3.889v-31.89h-3.89z"/>
        <path fill="#0078B3" d="M22.556 28.778h53.666V24.11H22.556z"/>
        <path fill="#DB334A" d="M22.556 73.111h53.666v-4.667H22.556z"/>
        <path fill="#1D1C1B" d="M93.333 0v18.546L95.278 21l1.944-2.454V0h-3.889"/>
        <path fill="#F1AB3D" d="M74.667 16.69l18.049 5.866 2.95-.958-1.824-2.511-18.049-5.865-1.126 3.468"/>
        <path fill="#DB334A" d="M84.593 38.889l11.072-14.882.002-3.007-2.929.93-11.071 14.882 2.926 2.077"/>
        <path fill="#0078B3" d="M109.667 36.812L98.594 21.93 95.667 21l.002 3.007 11.07 14.882 2.928-2.077"/>
        <path fill="#009949" d="M115.54 13.222l-18.05 5.866-1.823 2.51 2.95.958 18.05-5.866-1.127-3.468"/>
        <path fill="#1D1C1B" d="M3.631 90.814c.646 0 1.142-.162 1.49-.489.346-.326.52-.74.52-1.244 0-.562-.17-.973-.513-1.23-.342-.256-.827-.385-1.454-.385H2.11v3.348h1.522zM0 85.556h4.03c1.188 0 2.11.288 2.765.866.656.577.983 1.435.983 2.571 0 .602-.093 1.133-.278 1.592-.185.46-.441.845-.769 1.156-.328.31-.716.546-1.162.703a4.26 4.26 0 0 1-1.438.237H2.109v3.763H0V85.556zM10.29 100.333c-.268 0-.982-.057-1.303-.196l.416-1.744c.124.05.548.047.643.047.354 0 .642-.087.868-.256.224-.171.416-.452.58-.842l.329-.768-3.267-7.907h2.365l2.03 5.517 1.84-5.517h2.32l-3.568 9.006c-.192.5-.408.92-.652 1.262-.244.34-.507.614-.788.82a2.862 2.862 0 0 1-.882.442 3.21 3.21 0 0 1-.93.136M21.144 90.565c-.152 0-.318.02-.499.06a1.534 1.534 0 0 0-.952.659c-.12.183-.194.422-.225.719h3.23c0-.257-.044-.477-.135-.66a1.26 1.26 0 0 0-.356-.444 1.457 1.457 0 0 0-.497-.253 2.04 2.04 0 0 0-.566-.081zm.286 6.657c-.663 0-1.263-.095-1.797-.289a3.805 3.805 0 0 1-1.359-.823 3.612 3.612 0 0 1-.86-1.29c-.203-.504-.303-1.072-.303-1.705v-.296c0-.693.114-1.298.34-1.816.227-.52.526-.952.9-1.299a3.72 3.72 0 0 1 1.275-.778c.479-.173.974-.26 1.488-.26 1.167 0 2.088.34 2.763 1.018.674.676 1.012 1.637 1.012 2.882v1.097h-5.407c.031.287.112.528.241.72.132.193.293.353.485.482.19.128.4.22.626.274.226.055.445.082.657.082.584 0 1.102-.072 1.555-.215.454-.143.81-.305 1.074-.482l.588 1.66c-.14.12-.322.241-.544.364a4.866 4.866 0 0 1-.756.334c-.28.1-.588.18-.92.245a5.605 5.605 0 0 1-1.058.095zM30.73 95.363c.241 0 .477-.041.704-.125.227-.085.428-.217.607-.399a2 2 0 0 0 .423-.693c.105-.28.16-.617.16-1.01v-.413c0-.394-.057-.73-.167-1.01a1.892 1.892 0 0 0-.439-.679 1.695 1.695 0 0 0-.622-.376 2.221 2.221 0 0 0-.712-.119c-.242 0-.476.042-.704.126a1.652 1.652 0 0 0-.606.391c-.176.178-.32.403-.431.679-.111.274-.167.61-.167 1.002v.384c0 .423.058.776.175 1.062a1.9 1.9 0 0 0 .461.693c.192.178.402.304.629.377.226.074.455.11.689.11zm-.03 1.86a4.902 4.902 0 0 1-1.703-.289 3.892 3.892 0 0 1-1.349-.826 3.775 3.775 0 0 1-.886-1.298 4.343 4.343 0 0 1-.318-1.69v-.22c0-.66.12-1.25.356-1.778.237-.525.555-.97.954-1.334a4.18 4.18 0 0 1 1.371-.833 4.495 4.495 0 0 1 1.59-.288c.605 0 1.169.095 1.69.288.518.191.97.464 1.354.817.382.356.686.785.908 1.291.22.507.333 1.08.333 1.72v.206c0 .658-.121 1.249-.363 1.77a4.113 4.113 0 0 1-.961 1.326 4.24 4.24 0 0 1-1.379.842 4.48 4.48 0 0 1-1.598.295zM35.778 88.794h2.176v.904c.163-.17.348-.32.556-.453.208-.131.427-.24.662-.325a4.308 4.308 0 0 1 1.446-.253c.406 0 .787.058 1.142.176.354.118.667.295.936.53.269.235.48.524.632.867.152.344.228.742.228 1.192v5.012h-2.253v-4.63c0-.357-.131-.663-.395-.917s-.661-.381-1.188-.381c-.132 0-.28.021-.44.063a2.738 2.738 0 0 0-.482.177 2.003 2.003 0 0 0-.448.296c-.143.123-.258.26-.35.41v4.982h-2.222v-7.65M48.3 90.596a1.655 1.655 0 0 0-1.314.587 1.963 1.963 0 0 0-.351.63 2.31 2.31 0 0 0-.123.757v.326c0 .654.166 1.166.498 1.536.333.372.757.558 1.276.558.405 0 .755-.112 1.053-.335.3-.223.51-.516.635-.882v-2.154a1.607 1.607 0 0 0-.67-.756 1.939 1.939 0 0 0-1.003-.267zm-.23 7.794c.25 0 .49-.04.72-.12.232-.08.433-.193.607-.342.173-.147.313-.336.42-.563.105-.228.157-.49.157-.787v-.743c-.192.298-.507.54-.945.728a3.56 3.56 0 0 1-1.42.282c-.493 0-.938-.101-1.342-.304a3.165 3.165 0 0 1-1.04-.832 3.785 3.785 0 0 1-.663-1.232 4.8 4.8 0 0 1-.23-1.505v-.566a4.026 4.026 0 0 1 .944-2.597 3.37 3.37 0 0 1 1.054-.831c.408-.208.851-.311 1.334-.311.472 0 .928.061 1.372.186.442.123.769.339.98.644v-.652h2.093v7.42c0 .683-.096 1.28-.29 1.79-.192.51-.461.932-.807 1.269a3.324 3.324 0 0 1-1.256.757 5.046 5.046 0 0 1-1.645.252c-.75 0-1.411-.067-1.984-.2-.572-.133-1.018-.315-1.334-.543l.563-1.78c.124.079.283.154.476.222.193.07.408.132.649.186.24.054.495.096.764.126.27.03.544.046.823.046zM58.751 96.444c-.701 0-1.36-.13-1.98-.387a4.889 4.889 0 0 1-1.621-1.088 5.087 5.087 0 0 1-1.088-1.684c-.263-.654-.395-1.377-.395-2.17v-.46c0-.877.15-1.636.453-2.277.303-.64.698-1.17 1.189-1.59.49-.42 1.051-.731 1.684-.93a6.35 6.35 0 0 1 1.945-.302c.269 0 .552.021.85.064.297.043.585.1.865.172.278.072.537.157.777.257.24.101.442.209.605.323l-.692 1.777c-.278-.22-.626-.388-1.044-.51a4.385 4.385 0 0 0-1.203-.177c-.401 0-.791.063-1.167.192-.374.129-.71.322-1.008.58a2.814 2.814 0 0 0-.712.975c-.179.391-.267.851-.267 1.376v.458c0 .478.08.924.238 1.34.158.415.373.775.647 1.082.275.305.598.546.973.723.374.176.783.265 1.225.265a6.528 6.528 0 0 0 1.376-.178c.254-.063.492-.14.719-.23.225-.091.41-.199.555-.323l.547 1.777a2.482 2.482 0 0 1-.633.386c-.26.115-.546.216-.856.301-.314.086-.64.151-.98.195a8.092 8.092 0 0 1-1.002.063M63.778 84.778h2.205v4.43c.161-.18.35-.332.567-.456.215-.125.442-.227.679-.307a4.421 4.421 0 0 1 1.428-.24c.37 0 .732.063 1.079.187.347.125.657.313.929.561.27.25.488.56.649.935.16.374.242.815.242 1.323v5.233H69.35v-4.74c0-.428-.132-.784-.4-1.068-.267-.285-.656-.427-1.17-.427-.13 0-.283.02-.453.06-.171.04-.346.097-.52.172a2.036 2.036 0 0 0-.484.285c-.147.114-.26.251-.34.41v5.308h-2.205V84.778M76.302 90.597c-.27 0-.517.057-.744.17a1.828 1.828 0 0 0-.577.448 2.135 2.135 0 0 0-.375.655 2.324 2.324 0 0 0-.137.796v.434c0 .339.045.643.137.91.092.267.218.492.382.671.163.181.355.32.577.418.221.098.462.147.723.147.403 0 .751-.09 1.046-.27.292-.18.507-.488.641-.756v-2.634a1.453 1.453 0 0 0-.672-.75 2.105 2.105 0 0 0-1.001-.24zm3.81 6.625h-1.884l-.196-.941c-.145.166-.554.547-.994.686-.443.14-.92.21-1.43.21-.49 0-.938-.102-1.342-.303-.404-.2-.749-.48-1.039-.841a3.883 3.883 0 0 1-.663-1.274 5.301 5.301 0 0 1-.23-1.599v-.571c0-.505.09-.994.273-1.467.184-.474.431-.891.743-1.25a3.77 3.77 0 0 1 1.097-.874 2.812 2.812 0 0 1 1.335-.331c.472 0 .904.064 1.297.193a1.9 1.9 0 0 1 .94.64v-.648h2.092v8.37zM81.667 88.794h2.176v.904c.164-.17.349-.32.556-.453.208-.131.428-.24.663-.325a4.28 4.28 0 0 1 1.446-.253c.404 0 .786.058 1.141.176s.666.295.935.53c.27.235.48.524.633.867.152.344.227.742.227 1.192v5.012h-2.252v-4.63c0-.357-.13-.663-.394-.917-.265-.254-.662-.381-1.19-.381-.13 0-.278.021-.44.063a2.672 2.672 0 0 0-.48.177 1.991 1.991 0 0 0-.448.296 1.74 1.74 0 0 0-.35.41v4.982h-2.223v-7.65M94.191 90.596c-.279 0-.528.051-.75.156a1.62 1.62 0 0 0-.562.43 1.949 1.949 0 0 0-.354.63 2.31 2.31 0 0 0-.123.758v.326c0 .654.166 1.166.498 1.536.331.372.757.558 1.277.558.404 0 .755-.112 1.053-.335.298-.223.51-.516.635-.882v-2.154a1.622 1.622 0 0 0-.672-.756 1.933 1.933 0 0 0-1.002-.267zm-.231 7.794c.249 0 .492-.04.721-.12a1.83 1.83 0 0 0 .607-.342c.172-.147.312-.336.418-.563.105-.228.159-.49.159-.787v-.743c-.192.298-.507.54-.946.728a3.554 3.554 0 0 1-1.42.282c-.49 0-.94-.101-1.342-.304a3.18 3.18 0 0 1-1.04-.832 3.775 3.775 0 0 1-.663-1.232 4.782 4.782 0 0 1-.232-1.505v-.566c0-.484.085-.95.254-1.403.167-.449.398-.847.692-1.194a3.379 3.379 0 0 1 1.053-.831 2.91 2.91 0 0 1 1.336-.311c.47 0 .927.061 1.37.186.442.123.769.339.981.644v-.652H98v7.42c0 .683-.096 1.28-.289 1.79-.193.51-.46.932-.807 1.269a3.335 3.335 0 0 1-1.254.757 5.068 5.068 0 0 1-1.647.252c-.75 0-1.41-.067-1.983-.2-.572-.133-1.017-.315-1.335-.543l.563-1.78c.124.079.283.154.476.222.191.07.409.132.65.186a7.569 7.569 0 0 0 1.587.172zM101.918 95.586l3.677-3.75c.3-.34.555-.63.764-.872.209-.242.376-.466.502-.669.124-.204.215-.4.276-.589.058-.189.095-.395.105-.617.018-.523-.108-.946-.381-1.266-.276-.319-.731-.48-1.369-.48-.4 0-.76.136-1.084.408-.325.272-.561.698-.71 1.279l-1.81-.64c.12-.523.316-.964.59-1.323.275-.358.587-.65.936-.878a3.67 3.67 0 0 1 1.083-.488c.375-.097.72-.145 1.04-.145 1.227 0 2.19.286 2.893.857.703.571 1.054 1.386 1.054 2.443 0 .31-.052.62-.158.93-.104.31-.245.62-.426.93a7.86 7.86 0 0 1-.628.924c-.239.305-.492.604-.762.893l-1.93 1.991h4.087v1.92h-7.75v-.858M115.493 95.204c.658 0 1.138-.266 1.443-.795.304-.53.456-1.285.456-2.264v-1.452c0-1.018-.157-1.79-.47-2.316-.315-.525-.788-.787-1.414-.787-.669 0-1.148.26-1.444.779-.295.52-.442 1.274-.442 2.264V92.1c0 .989.144 1.753.429 2.293.284.54.765.811 1.442.811zm-.014 2.018c-.598 0-1.155-.1-1.672-.298a3.624 3.624 0 0 1-1.348-.91c-.382-.407-.684-.925-.904-1.551-.222-.627-.333-1.374-.333-2.24v-1.438c0-.968.119-1.783.355-2.447.235-.662.552-1.2.948-1.612a3.511 3.511 0 0 1 1.377-.895 4.823 4.823 0 0 1 1.621-.275 4.65 4.65 0 0 1 1.62.283c.51.189.96.49 1.353.902.394.413.705.948.936 1.605.23.659.346 1.451.346 2.378v1.391c0 .918-.12 1.7-.362 2.348-.24.646-.56 1.174-.956 1.582a3.63 3.63 0 0 1-1.37.894 4.63 4.63 0 0 1-1.61.283zM122.795 88.111l-2.24.436v-1.555l3.454-1.436h1.213v10.888h-2.427v-8.333M129.491 88.726c0 .395.147.718.44.971.294.253.67.379 1.133.379.472 0 .852-.126 1.141-.379.287-.253.43-.576.43-.971 0-.384-.143-.702-.43-.955-.289-.253-.669-.38-1.141-.38-.462 0-.84.127-1.133.38-.293.253-.44.571-.44.955zm-.278 4.93c0 .466.176.848.526 1.145.35.3.802.449 1.356.449.555 0 1.006-.15 1.356-.449.35-.297.524-.68.524-1.145 0-.485-.174-.877-.524-1.175-.35-.299-.8-.447-1.356-.447-.554 0-1.007.148-1.356.447-.35.298-.526.69-.526 1.175zm-1.957-5.081c0-.445.094-.853.285-1.222.192-.369.453-.688.787-.956a3.646 3.646 0 0 1 1.202-.622c.47-.146.98-.22 1.534-.22.555 0 1.066.074 1.533.22.468.147.868.355 1.203.622.334.268.597.587.786.956.19.37.285.777.285 1.222 0 .514-.131.982-.392 1.403-.264.42-.624.76-1.087 1.024a3.51 3.51 0 0 1 1.41 1.16c.354.501.531 1.065.531 1.691 0 .507-.105.967-.316 1.38-.21.416-.505.77-.887 1.063-.38.293-.832.522-1.355.683a5.83 5.83 0 0 1-1.727.243c-.626 0-1.202-.08-1.726-.243a4.148 4.148 0 0 1-1.348-.683 3.133 3.133 0 0 1-.88-1.062 3.012 3.012 0 0 1-.316-1.38c0-.637.177-1.201.532-1.692.355-.49.825-.883 1.41-1.175a2.952 2.952 0 0 1-1.077-1.017 2.602 2.602 0 0 1-.387-1.395zM136.655 87.889h-.326v-2.113h-.996v-.22h2.334v.22h-1.012v2.113M137.667 85.556h.416l.75 2.016.773-2.016H140v2.33h-.272v-1.987l-.75 1.99h-.299l-.744-2v1.997h-.268v-2.33"/>
    </g>
</svg>
