<svg xmlns="http://www.w3.org/2000/svg" width="80" height="80" viewBox="0 0 80 80">
    <g fill="#0088CE" fill-rule="evenodd">
        <path d="M64.652 39.062c.229 0 .458-.027.683-.076a3.235 3.235 0 0 0 2.052-1.418c.471-.728.63-1.598.447-2.444a3.266 3.266 0 0 0-3.178-2.577c-.227 0-.456.026-.68.073a3.253 3.253 0 0 0-2.507 3.863 3.273 3.273 0 0 0 3.183 2.579M54.603 49.598c-.151-1.068-.303-2.079-.424-2.856l-.109-.645-3.086 2.2-.105.114.03 1.486c.035 1.666.09 3.642.16 5.58h-.027c-.079-.003-.157-.006-.232-.006l-1.063-.004c-.369 0-.853.002-1.298.031l-.51.027-2.906 4.97.634-.059a59.405 59.405 0 0 1 2.047-.163l.95-.048c.367-.024.772-.036 1.271-.053.28-.008.57-.018.874-.03.307-.022.615-.016.954-.019l.258-.003c.418-.005.846-.01 1.285-.01l.223-.002c.072-.003.15-.007.224-.018a2.179 2.179 0 0 0 1.907-2.416c-.28-2.363-.647-5.157-1.057-8.076M66.405 53.44c-.09-.203-.183-.4-.28-.604a22.772 22.772 0 0 1-.489-1.082c-.535-1.2-1.052-2.577-1.495-3.774a93.58 93.58 0 0 1-.76-2.124l-.033-.092c-.144-.417-.28-.805-.421-1.194a77.713 77.713 0 0 1-1.17-3.59l-.136-.456-.375.292a66.84 66.84 0 0 0-2.897 2.364l-.122.106.12.38c.305.957.64 1.913.779 2.308.297.81.786 2.079 1.452 3.493.725 1.538 1.385 2.8 2.013 3.85.231.41.476.79.713 1.16l.064.099c.094.146.188.288.281.44.256.38.505.729.725 1.038l.218.305c.26.33.507.634.693.86l.31.369 2.172-1.566-.69-1.256"/>
        <path d="M48.073 51.307l-.002-.077c0-.108 0-.225.009-.341a7.955 7.955 0 0 1 .523-2.353 9.785 9.785 0 0 1 2.044-3.19c.55-.589 1.205-1.154 1.947-1.683 1.6-1.139 3.637-2.128 5.899-2.864l.098-.03a2.252 2.252 0 0 0 1.552-2.188 2.243 2.243 0 0 0-.69-1.585 4.613 4.613 0 0 0-.246-.223l-.296-.247a14.56 14.56 0 0 0-.481-.363c-.332-.236-.66-.45-.972-.636a15.099 15.099 0 0 0-2.02-1 15.602 15.602 0 0 0-2.086-.68 15.313 15.313 0 0 0-2.07-.357 15.865 15.865 0 0 0-3.91.08c-.637.087-1.284.22-1.971.404l-.093-.184c-.069-.152-.14-.302-.21-.45l-.05-.106a17.105 17.105 0 0 1-.466-1.036c-.857-1.933-1.672-4.254-2.268-5.957l-.301-.851c-.086-.243-.391-1.12-.673-1.993-.118-.37-.286-.9-.415-1.347l-.135-.46-.375.294a66.987 66.987 0 0 0-2.713 2.218l-.128.109.116.354c.286.899.603 1.804.736 2.178.277.769.74 1.962 1.369 3.299.676 1.44 1.299 2.63 1.901 3.635.231.41.472.786.707 1.151l.103.16c-.96.422-1.88.91-2.805 1.484a12.06 12.06 0 0 0-.906.593l-.66.46 1.86 2.826.26-.137a21.321 21.321 0 0 0 .47-.257c.196-.113.438-.251.735-.393a18.943 18.943 0 0 1 3.775-1.514c1.86-.53 3.764-.663 5.517-.385.528.076 1.043.213 1.475.336.118.037.232.075.345.116-.231.11-.473.225-.716.352-1.837.935-3.441 2.083-4.77 3.4a14.43 14.43 0 0 0-3.226 4.777c-.35.846-.607 1.729-.765 2.614-.08.432-.135.874-.161 1.312l-8.654 8.045-.135.121.695 1.558-3.651 3.371.249 2.45 4.244-3.934.69 1.541 10.922-10.152c.57-.6.807-1.3.779-2.265M43.647 20.217c.217 0 .435-.023.643-.07a3.045 3.045 0 0 0 1.94-1.337c.448-.693.6-1.514.428-2.314a3.09 3.09 0 0 0-3.006-2.436c-.216 0-.434.027-.644.068a3.063 3.063 0 0 0-1.943 1.334 3.086 3.086 0 0 0-.428 2.32 3.098 3.098 0 0 0 3.01 2.435M33.102 40.092c.055-.004.115-.008.174-.014a2.034 2.034 0 0 0 1.38-.756c.344-.428.502-.964.443-1.51-.247-2.312-.579-5.078-.91-7.59-.14-1.088-.267-2.013-.367-2.683l-.115-.722-2.922 2.084-.1.077.008 1.49c.018 1.676.048 3.535.09 5.246a5.587 5.587 0 0 0-.282-.007l-1.015-.004c-.36 0-.825.004-1.24.03l-.382.018-2.747 4.701.631-.058a60.836 60.836 0 0 1 1.805-.143l.898-.047c.347-.021.735-.034 1.167-.047l.237-.008.638-.024c.294-.019.598-.02.94-.02"/>
        <path d="M27.995 31.78l-.001-.078a3 3 0 0 1 .01-.323c.012-.239.037-.475.078-.705.083-.51.223-1.02.413-1.513a9.164 9.164 0 0 1 1.93-3.008 12.567 12.567 0 0 1 1.836-1.589c1.506-1.07 3.433-2.009 5.57-2.704l.095-.03a2.09 2.09 0 0 0 .866-.545c.4-.412.612-.955.6-1.523a2.122 2.122 0 0 0-.654-1.503c-.107-.105-.166-.154-.236-.213l-.273-.227a11.058 11.058 0 0 0-.458-.347 15.292 15.292 0 0 0-.915-.596 13.612 13.612 0 0 0-1.908-.949 15.226 15.226 0 0 0-1.973-.642 14.395 14.395 0 0 0-1.953-.335 14.811 14.811 0 0 0-3.69.075 16.151 16.151 0 0 0-3.112.76 20.142 20.142 0 0 0-4.14 1.981c-.34.201-.604.382-.844.552l-.635.445 1.764 2.68.401-.22c.077-.041.16-.086.271-.151.188-.107.424-.24.712-.38a17.76 17.76 0 0 1 3.563-1.43c1.75-.497 3.57-.62 5.206-.363.505.077 1.013.21 1.396.318.107.033.211.07.314.106-.2.095-.435.206-.668.327-1.734.885-3.249 1.966-4.504 3.214a13.576 13.576 0 0 0-3.048 4.509c-.327.797-.57 1.629-.723 2.472-.073.4-.124.818-.153 1.244l-8.164 7.582-.135.12.67 1.508-3.335 3.088-.095.085.256 2.26 3.96-3.675.65 1.454 10.318-9.592c.557-.587.757-1.166.738-2.14"/>
    </g>
</svg>
