<svg xmlns="http://www.w3.org/2000/svg" width="80" height="80" viewBox="0 0 80 80">
    <g fill="#0088CE" fill-rule="evenodd">
        <path d="M21.803 26.075a65.713 65.713 0 0 0 4.1 3.603c.277.233.564.456.852.68l1.036.803.09.043c2.522 1.17 6.75 2.25 9.87 2.874.098.02.236.043.387.068l1.042.168-.86-.611c-.261-.187-.597-.415-.977-.676l-3.294-2.547-1.65-1.402-1.121-1c-.262-.228-.52-.465-.815-.737l-.725-.67c-.222-.206-.444-.409-.66-.624a143.13 143.13 0 0 1-2.473-2.38l-.168-.165c-.396-.385-.765-.746-1.104-1.07-.032-.033-.544-.526-1.21-1.191l-.152-.151-4.062 3.103.195.198c.899.906 1.654 1.64 1.699 1.684"/>
        <path d="M52.985 52.534l-2.15-3.32 5.41 2.074c.39.15.824.183 1.233.093a2.162 2.162 0 0 0 1.642-2.572 9.182 9.182 0 0 0-.97-2.559c-.384-.7-.882-1.362-1.568-2.08a11.767 11.767 0 0 0-.837-.794l-.24-.202a12.515 12.515 0 0 0-.793-.61c-.6-.437-1.253-.847-1.999-1.25-2.795-1.517-5.645-2.394-8.099-3.099-1.138-.326-2.253-.611-3.332-.89l-.626-.165a80.857 80.857 0 0 1-1.606-.433l-3.34-1-3.023-1-2.17-.784a29.127 29.127 0 0 1-1.431-.544l-.63-.25a70.531 70.531 0 0 1-6.08-2.739c-2.044-1.032-4.1-2.243-5.64-3.324a17.39 17.39 0 0 1-.398-.283l-.148-.105-4.173 3.189.249.197c.512.404 1.038.794 1.561 1.154 1.733 1.22 4.01 2.563 6.243 3.692a74.611 74.611 0 0 0 6.507 2.928l.611.244c.624.246 1.162.46 1.568.6l2.294.82 3.893 1.22 2.786.791c.605.16 1.26.317 1.876.463l.79.188c.984.233 1.97.465 2.954.718.61.159 1.22.322 1.83.497a2.004 2.004 0 0 0-.45.241 1.936 1.936 0 0 0-.438 2.705l4.231 5.85-22.728-6.2-.236-.066-.49 1.785 39.504 10.775 1.946-1.383-12.838-3.502M66.676 45.263a3.19 3.19 0 0 0-1.908-.617c-1.12 0-2.214.543-2.928 1.456-.606.774-.883 1.752-.758 2.683a3.057 3.057 0 0 0 1.213 2.076c.545.406 1.207.62 1.91.62 1.12 0 2.214-.546 2.93-1.458a3.604 3.604 0 0 0 .772-2.555c-.09-.905-.527-1.689-1.23-2.205"/>
    </g>
</svg>
