<svg xmlns="http://www.w3.org/2000/svg" width="80" height="80" viewBox="0 0 80 80">
    <g fill="#0088CE" fill-rule="evenodd">
        <path d="M58.85 21.812l-.4-.196a6.33 6.33 0 0 0-.34-.145 7.512 7.512 0 0 0-.647-.242l-.248-.084c-.133-.044-.266-.09-.398-.124l-.633-.172a12.184 12.184 0 0 0-.844-.188c-.137-.029-.275-.054-.425-.088-.262-.045-.533-.08-.814-.12l-.417-.06c-.256-.03-.51-.05-.811-.068l-.406-.03c-.342-.033-.67-.036-1.004-.036l-.856-.001c-.17 0-.342.001-.506.017l-1.148.076c-2.504.21-4.971.768-7.77 1.761l-1.888.723-2.124.95c-.231.117-.452.234-.66.346l-1.527.819.968 3.11 2.055-.923c.18-.084.371-.173.564-.255l2.696-1.013 1.052-.33c2.45-.736 4.706-1.145 6.894-1.244.901-.038 2.09-.016 2.508.03-.44.235-.878.469-1.316.71a94.398 94.398 0 0 0-6.115 3.697 74.419 74.419 0 0 0-9.728 7.655l-1.266 1.209c-.131.124-.269.258-.425.404l-1.73 1.793c-.266.275-.539.557-.8.86l-1.73 1.947c-.1.118-.198.238-.298.36l-1.57 1.92a9.094 9.094 0 0 0-.364.453l-1.942 2.594c-.087.116-.164.23-.24.34l-.064.095 1.436 4.705-13.507 8.296.94 1.53L51.744 39.1l.098-.06.291-2.283-24.297 14.919c.091-.135.529-.78.661-.957l1.297-1.731c.156-.207.812-1.047.98-1.257l1.051-1.289c.178-.212.898-1.056 1.08-1.26.366-.41.722-.81 1.07-1.204.24-.28.492-.541.742-.798l1.22-1.264c.142-.15.684-.684.807-.802l1.183-1.132a81.462 81.462 0 0 1 9.032-7.33 97.207 97.207 0 0 1 5.702-3.675 130.9 130.9 0 0 1 6.082-3.365l.105-.053a2.113 2.113 0 0 0 .003-3.747M67.377 19.338a2.863 2.863 0 0 0-2.003-1.24c-1.704-.21-3.277 1.092-3.56 2.878-.141.904.077 1.827.602 2.526a2.851 2.851 0 0 0 2.302 1.168c1.556 0 2.928-1.247 3.188-2.901a3.369 3.369 0 0 0-.529-2.43"/>
    </g>
</svg>
