<svg xmlns="http://www.w3.org/2000/svg" width="80" height="80" viewBox="0 0 80 80">
    <g fill="#0088CE" fill-rule="evenodd">
        <path d="M44.946 53.061c-1.923.196-3.361 2.053-3.207 4.14.08 1.005.518 1.915 1.233 2.563.632.567 1.39.868 2.195.868.119 0 .24-.005.357-.02 1.923-.195 3.36-2.048 3.202-4.133-.163-2.075-1.836-3.63-3.78-3.418M25.515 12.138l-.109-.084-2.11.691 10.902 8.6-1.778 3.716c-.995 2.078-2.314 5.51-2.833 6.889-.452 1.195-.85 2.287-1.128 3.083-.067.194-.13.37-.18.524l-.124.37 4.38-.403.066-.108c.291-.482.607-1.013.937-1.575.75-1.276 2.61-4.466 3.595-6.526l1.268-2.652 5.59 4.41-1.265 1.025c-.164.14-.33.279-.492.426a56.736 56.736 0 0 0-2.826 2.704 77.202 77.202 0 0 0-4.24 4.739c-.026 0-9.983-.416-11.023-.453h-.056c-.163-.028-.238-.014-.433.02a2.515 2.515 0 0 0-1.681.97c-.411.538-.59 1.2-.5 1.874.256 1.94.909 3.814 1.883 5.42.913 1.547 2.179 3.012 3.767 4.36a24.93 24.93 0 0 0 4.554 3.004 24.123 24.123 0 0 0-2.905 1.978c-.402.3-.771.62-1.138.943-.15.13-.298.26-.455.39l-.363.346-.342.33c-.26.249-.477.456-.67.67l-.142.154c-.388.409-.753.797-1.084 1.203l-1.05 1.31a28.518 28.518 0 0 0-2.702 4.32c-.12.217-.21.42-.3.614l-.5 1.132 3.083 1.414.539-.975c.082-.148.172-.315.29-.498a27.062 27.062 0 0 1 2.569-3.629l.985-1.105c.268-.3.566-.59.913-.925l.197-.192c.168-.167.353-.328.55-.499l.69-.6.448-.358c.274-.215.613-.486.974-.726a20.816 20.816 0 0 1 3.177-1.894c1.227-.591 2.436-1.027 3.593-1.296A2.235 2.235 0 0 0 39.54 52.1a2.226 2.226 0 0 0-1.282-1.131l-1.144-.411a26.518 26.518 0 0 1-3.118-1.483 20.3 20.3 0 0 1-3.681-2.596c-1.136-1.03-2.018-2.106-2.617-3.201a8.25 8.25 0 0 1-.234-.44c1.821.1 8.788.426 8.795.426l.097.004c.81 0 1.586-.374 2.077-1 .351-.445.744-.928 1.125-1.381a79.98 79.98 0 0 1 1.173-1.365 72.972 72.972 0 0 1 2.431-2.632 50.726 50.726 0 0 1 2.55-2.44 95.029 95.029 0 0 1 1.592-1.32l.953-.695 2.735 2.159-.568.806c-.179.26-.382.53-.604.82l-.112.15-.358.479c-.299.416-.653.866-1.023 1.338l-.327.417c-1.946 2.488-4.406 5.34-5.924 7.032l-.15.177c-.083.1-.208.232-.358.389l-1.344 1.423c-.16.18-.337.342-.51.5l-1.107 1.024.387.142c.983.362 2.481.847 4.051 1.104l.133.02 1.4-1.481c.159-.169.294-.308.373-.409l.17-.197c1.615-1.802 3.896-4.926 5.668-7.766a58.713 58.713 0 0 0 2.152-3.685l.267-.532 4.808 3.79 2.108-.691"/>
    </g>
</svg>
