<svg xmlns="http://www.w3.org/2000/svg" width="80" height="80" viewBox="0 0 80 80">
    <g fill="#0088CE" fill-rule="evenodd">
        <path d="M50.14 41.208a485.765 485.765 0 0 0-8.447-1.99l-.633-.142-.102.169a37.917 37.917 0 0 0-1.722 3.264l-.126.27 1.402.505c1.44.518 3.184 1.133 5.03 1.776a34.893 34.893 0 0 0-2.417 5.424c-.013.034-.058.151-.11.333-.076.23-.174.544-.292.917-.085.257-.164.55-.263.908l-.107.393c-.145.499-.263 1.02-.375 1.519l-.351 1.753c-.08.44-.154.85-.183 1.141l-.072.527h-2.25l-1.075 1.987H49.26l1.077-1.987h-3.305c.038-.271.085-.53.14-.808l.28-1.382c.098-.439.2-.881.318-1.296l.109-.393c.072-.261.138-.505.214-.726l.244-.786c.057-.183.097-.287.103-.304.305-.89.73-2.08 1.278-3.394.22-.526.52-1.22.863-1.922.13-.284.276-.562.418-.841l.177-.334c.046-.089.091-.176.138-.258l.401-.723a2.467 2.467 0 0 0-.049-2.48 2.47 2.47 0 0 0-1.526-1.12"/>
        <path d="M58.368 31.571c-.025-.053-.047-.103-.052-.106l-.107-.198a5.915 5.915 0 0 0-.194-.338l-.112-.182c-.095-.154-.187-.306-.287-.439l-.088-.128c-.109-.157-.215-.314-.336-.476l-.875-1.063-.457-.5c-.194-.214-.4-.407-.638-.63l-.818-.742-1.526-1.173-.37-.25c-.218-.15-.437-.3-.664-.44l-1.05-.598c-2.309-1.27-4.887-2.156-7.883-2.711a79.93 79.93 0 0 0-3.146-.414 61.1 61.1 0 0 0-2.392-.126l-1.526-.005-.536.009v3.622l1.875.151c.3.02 1.716.175 2.142.238.401.059 2.23.392 2.752.51 2.544.598 4.674 1.438 6.518 2.567l.82.512c.179.117.338.241.499.362.1.077.2.154.276.207l.04.03a26.021 26.021 0 0 0-2.086.011c-3.2.151-6.235.93-8.775 2.254a20.34 20.34 0 0 0-3.75 2.496l-.37.336c-.406.37-.825.746-1.188 1.159l-.255.268c-.159.17-.32.34-.465.518l-.658.815c-1.237 1.578-2.284 3.378-3.202 5.508-.253.124-8.52 4.143-13.466 6.54l-3.966 1.927v6.237l6.694-3.253c5.936-2.883 13.732-6.675 14.143-6.874a2.81 2.81 0 0 0 1.388-1.513 28.28 28.28 0 0 1 .894-2.081c.582-1.204 1.202-2.235 1.896-3.15l.482-.624c.097-.128.206-.245.315-.365.068-.071.138-.148.204-.228.237-.285.515-.55.762-.782l.05-.046c.102-.1.206-.198.291-.284l.09-.077a15.436 15.436 0 0 1 2.591-1.812c1.854-1.036 4.138-1.69 6.61-1.893a21.477 21.477 0 0 1 3.608.015 20.865 20.865 0 0 1 2.642.389l1.006.244a2.362 2.362 0 0 0 2.71-3.298M67.119 28.078a3.28 3.28 0 0 0-2.409-1.189l-.118-.002c-1.862 0-3.479 1.633-3.604 3.638-.067 1.046.28 2.068.949 2.804a3.255 3.255 0 0 0 2.313 1.09l.116.003c1.863 0 3.483-1.633 3.614-3.643.06-1.003-.245-1.96-.861-2.701"/>
    </g>
</svg>
