<svg xmlns="http://www.w3.org/2000/svg" width="16" height="14" viewBox="0 0 16 14">
    <g fill="none" fill-rule="evenodd">
        <path d="M-8.364-10h32v32h-32z"/>
        <path fill="#FFF" d="M13.837 2.251A3.28 3.28 0 0 0 15.214.424a6.076 6.076 0 0 1-1.99.802A3.05 3.05 0 0 0 10.937.182c-1.73 0-3.132 1.48-3.132 3.304 0 .26.026.512.08.753C5.282 4.1 2.973 2.787 1.427.786a3.436 3.436 0 0 0-.424 1.662c0 1.146.553 2.158 1.394 2.751a3.021 3.021 0 0 1-1.42-.413v.04c0 1.603 1.08 2.938 2.514 3.241-.263.078-.54.116-.826.116-.202 0-.4-.02-.59-.058.399 1.312 1.556 2.269 2.928 2.294a6.083 6.083 0 0 1-4.64 1.37 8.544 8.544 0 0 0 4.804 1.484c5.764 0 8.914-5.036 8.914-9.403 0-.144-.002-.286-.008-.427a6.55 6.55 0 0 0 1.563-1.712 6.005 6.005 0 0 1-1.799.52z"/>
    </g>
</svg>
